<mxfile host="app.diagrams.net" modified="2023-02-21T23:19:50.723Z" agent="5.0 (Windows NT 10.0; Win64; x64) AppleWebKit/537.36 (KHTML, like Gecko) Chrome/110.0.0.0 Safari/537.36" etag="fw15wmZvV3-DHSTbyU5R" version="20.8.22" type="github">
  <diagram id="C5RBs43oDa-KdzZeNtuy" name="Page-1">
    <mxGraphModel dx="1739" dy="495" grid="1" gridSize="10" guides="1" tooltips="1" connect="1" arrows="1" fold="1" page="1" pageScale="1" pageWidth="827" pageHeight="1169" math="0" shadow="0">
      <root>
        <mxCell id="WIyWlLk6GJQsqaUBKTNV-0" />
        <mxCell id="WIyWlLk6GJQsqaUBKTNV-1" parent="WIyWlLk6GJQsqaUBKTNV-0" />
        <mxCell id="kMa7ujGkbgm4nIbHHd1Z-5" style="edgeStyle=orthogonalEdgeStyle;rounded=0;orthogonalLoop=1;jettySize=auto;html=1;endArrow=block;endFill=0;" edge="1" parent="WIyWlLk6GJQsqaUBKTNV-1" source="kMa7ujGkbgm4nIbHHd1Z-4">
          <mxGeometry relative="1" as="geometry">
            <mxPoint x="-170" y="120" as="targetPoint" />
          </mxGeometry>
        </mxCell>
        <mxCell id="kMa7ujGkbgm4nIbHHd1Z-4" value="Старт добавления площадки" style="rounded=1;whiteSpace=wrap;html=1;" vertex="1" parent="WIyWlLk6GJQsqaUBKTNV-1">
          <mxGeometry x="-230" y="10" width="120" height="60" as="geometry" />
        </mxCell>
        <mxCell id="kMa7ujGkbgm4nIbHHd1Z-9" style="edgeStyle=orthogonalEdgeStyle;rounded=0;orthogonalLoop=1;jettySize=auto;html=1;endArrow=block;endFill=0;" edge="1" parent="WIyWlLk6GJQsqaUBKTNV-1" source="kMa7ujGkbgm4nIbHHd1Z-6">
          <mxGeometry relative="1" as="geometry">
            <mxPoint x="-170" y="250" as="targetPoint" />
          </mxGeometry>
        </mxCell>
        <mxCell id="kMa7ujGkbgm4nIbHHd1Z-6" value="валидация админа площадки" style="rounded=1;whiteSpace=wrap;html=1;" vertex="1" parent="WIyWlLk6GJQsqaUBKTNV-1">
          <mxGeometry x="-230" y="120" width="120" height="60" as="geometry" />
        </mxCell>
        <mxCell id="kMa7ujGkbgm4nIbHHd1Z-11" style="edgeStyle=orthogonalEdgeStyle;rounded=0;orthogonalLoop=1;jettySize=auto;html=1;endArrow=block;endFill=0;entryX=0.5;entryY=0;entryDx=0;entryDy=0;" edge="1" parent="WIyWlLk6GJQsqaUBKTNV-1" source="kMa7ujGkbgm4nIbHHd1Z-10" target="kMa7ujGkbgm4nIbHHd1Z-21">
          <mxGeometry relative="1" as="geometry">
            <mxPoint x="-120" y="480" as="targetPoint" />
          </mxGeometry>
        </mxCell>
        <mxCell id="kMa7ujGkbgm4nIbHHd1Z-13" style="edgeStyle=orthogonalEdgeStyle;rounded=0;orthogonalLoop=1;jettySize=auto;html=1;endArrow=block;endFill=0;entryX=0.5;entryY=0;entryDx=0;entryDy=0;" edge="1" parent="WIyWlLk6GJQsqaUBKTNV-1" source="kMa7ujGkbgm4nIbHHd1Z-10" target="kMa7ujGkbgm4nIbHHd1Z-17">
          <mxGeometry relative="1" as="geometry">
            <mxPoint x="-300" y="460" as="targetPoint" />
          </mxGeometry>
        </mxCell>
        <mxCell id="kMa7ujGkbgm4nIbHHd1Z-15" style="edgeStyle=orthogonalEdgeStyle;rounded=0;orthogonalLoop=1;jettySize=auto;html=1;exitX=1;exitY=1;exitDx=0;exitDy=0;endArrow=block;endFill=0;entryX=0.5;entryY=0;entryDx=0;entryDy=0;" edge="1" parent="WIyWlLk6GJQsqaUBKTNV-1" source="kMa7ujGkbgm4nIbHHd1Z-10" target="kMa7ujGkbgm4nIbHHd1Z-20">
          <mxGeometry relative="1" as="geometry">
            <mxPoint x="-40" y="480" as="targetPoint" />
          </mxGeometry>
        </mxCell>
        <mxCell id="kMa7ujGkbgm4nIbHHd1Z-16" style="edgeStyle=orthogonalEdgeStyle;rounded=0;orthogonalLoop=1;jettySize=auto;html=1;exitX=0;exitY=1;exitDx=0;exitDy=0;endArrow=block;endFill=0;entryX=0.5;entryY=0;entryDx=0;entryDy=0;" edge="1" parent="WIyWlLk6GJQsqaUBKTNV-1" source="kMa7ujGkbgm4nIbHHd1Z-10" target="kMa7ujGkbgm4nIbHHd1Z-19">
          <mxGeometry relative="1" as="geometry">
            <mxPoint x="-240" y="480" as="targetPoint" />
          </mxGeometry>
        </mxCell>
        <mxCell id="kMa7ujGkbgm4nIbHHd1Z-10" value="telegram, youtube,&lt;br&gt;instagram,&lt;br&gt;facebook" style="rhombus;whiteSpace=wrap;html=1;" vertex="1" parent="WIyWlLk6GJQsqaUBKTNV-1">
          <mxGeometry x="-250" y="250" width="160" height="150" as="geometry" />
        </mxCell>
        <mxCell id="kMa7ujGkbgm4nIbHHd1Z-22" style="edgeStyle=orthogonalEdgeStyle;rounded=0;orthogonalLoop=1;jettySize=auto;html=1;endArrow=block;endFill=0;entryX=0.5;entryY=0;entryDx=0;entryDy=0;" edge="1" parent="WIyWlLk6GJQsqaUBKTNV-1" source="kMa7ujGkbgm4nIbHHd1Z-17" target="kMa7ujGkbgm4nIbHHd1Z-24">
          <mxGeometry relative="1" as="geometry">
            <mxPoint x="-420" y="610" as="targetPoint" />
          </mxGeometry>
        </mxCell>
        <mxCell id="kMa7ujGkbgm4nIbHHd1Z-17" value="telegram validation" style="rounded=1;whiteSpace=wrap;html=1;" vertex="1" parent="WIyWlLk6GJQsqaUBKTNV-1">
          <mxGeometry x="-580" y="480" width="120" height="60" as="geometry" />
        </mxCell>
        <mxCell id="kMa7ujGkbgm4nIbHHd1Z-33" style="edgeStyle=orthogonalEdgeStyle;rounded=0;orthogonalLoop=1;jettySize=auto;html=1;endArrow=block;endFill=0;entryX=0.5;entryY=0;entryDx=0;entryDy=0;" edge="1" parent="WIyWlLk6GJQsqaUBKTNV-1" source="kMa7ujGkbgm4nIbHHd1Z-19" target="kMa7ujGkbgm4nIbHHd1Z-38">
          <mxGeometry relative="1" as="geometry">
            <mxPoint x="-310" y="610.0000000000001" as="targetPoint" />
          </mxGeometry>
        </mxCell>
        <mxCell id="kMa7ujGkbgm4nIbHHd1Z-19" value="youtube validation" style="rounded=1;whiteSpace=wrap;html=1;" vertex="1" parent="WIyWlLk6GJQsqaUBKTNV-1">
          <mxGeometry x="-380" y="480" width="120" height="60" as="geometry" />
        </mxCell>
        <mxCell id="kMa7ujGkbgm4nIbHHd1Z-50" style="edgeStyle=orthogonalEdgeStyle;rounded=0;orthogonalLoop=1;jettySize=auto;html=1;entryX=0.5;entryY=0;entryDx=0;entryDy=0;endArrow=block;endFill=0;" edge="1" parent="WIyWlLk6GJQsqaUBKTNV-1" source="kMa7ujGkbgm4nIbHHd1Z-20" target="kMa7ujGkbgm4nIbHHd1Z-49">
          <mxGeometry relative="1" as="geometry" />
        </mxCell>
        <mxCell id="kMa7ujGkbgm4nIbHHd1Z-20" value="facebook validation" style="rounded=1;whiteSpace=wrap;html=1;" vertex="1" parent="WIyWlLk6GJQsqaUBKTNV-1">
          <mxGeometry x="20" y="480" width="120" height="60" as="geometry" />
        </mxCell>
        <mxCell id="kMa7ujGkbgm4nIbHHd1Z-44" style="edgeStyle=orthogonalEdgeStyle;rounded=0;orthogonalLoop=1;jettySize=auto;html=1;entryX=0.5;entryY=0;entryDx=0;entryDy=0;endArrow=block;endFill=0;" edge="1" parent="WIyWlLk6GJQsqaUBKTNV-1" source="kMa7ujGkbgm4nIbHHd1Z-21" target="kMa7ujGkbgm4nIbHHd1Z-43">
          <mxGeometry relative="1" as="geometry" />
        </mxCell>
        <mxCell id="kMa7ujGkbgm4nIbHHd1Z-21" value="instagram validation" style="rounded=1;whiteSpace=wrap;html=1;" vertex="1" parent="WIyWlLk6GJQsqaUBKTNV-1">
          <mxGeometry x="-180" y="480" width="120" height="60" as="geometry" />
        </mxCell>
        <mxCell id="kMa7ujGkbgm4nIbHHd1Z-26" style="edgeStyle=orthogonalEdgeStyle;rounded=0;orthogonalLoop=1;jettySize=auto;html=1;endArrow=block;endFill=0;exitX=1;exitY=0.5;exitDx=0;exitDy=0;entryX=0.5;entryY=0;entryDx=0;entryDy=0;" edge="1" parent="WIyWlLk6GJQsqaUBKTNV-1" source="kMa7ujGkbgm4nIbHHd1Z-24" target="kMa7ujGkbgm4nIbHHd1Z-53">
          <mxGeometry relative="1" as="geometry">
            <mxPoint x="-460" y="720" as="targetPoint" />
          </mxGeometry>
        </mxCell>
        <mxCell id="kMa7ujGkbgm4nIbHHd1Z-32" value="нет" style="edgeLabel;html=1;align=center;verticalAlign=middle;resizable=0;points=[];" vertex="1" connectable="0" parent="kMa7ujGkbgm4nIbHHd1Z-26">
          <mxGeometry x="0.2348" y="-1" relative="1" as="geometry">
            <mxPoint x="1" y="6" as="offset" />
          </mxGeometry>
        </mxCell>
        <mxCell id="kMa7ujGkbgm4nIbHHd1Z-28" style="edgeStyle=orthogonalEdgeStyle;rounded=0;orthogonalLoop=1;jettySize=auto;html=1;endArrow=block;endFill=0;exitX=0;exitY=0.5;exitDx=0;exitDy=0;entryX=0.5;entryY=0;entryDx=0;entryDy=0;" edge="1" parent="WIyWlLk6GJQsqaUBKTNV-1" source="kMa7ujGkbgm4nIbHHd1Z-24" target="kMa7ujGkbgm4nIbHHd1Z-52">
          <mxGeometry relative="1" as="geometry">
            <mxPoint x="-580" y="720" as="targetPoint" />
          </mxGeometry>
        </mxCell>
        <mxCell id="kMa7ujGkbgm4nIbHHd1Z-29" value="да" style="edgeLabel;html=1;align=center;verticalAlign=middle;resizable=0;points=[];" vertex="1" connectable="0" parent="kMa7ujGkbgm4nIbHHd1Z-28">
          <mxGeometry x="-0.4491" relative="1" as="geometry">
            <mxPoint x="-52" y="40" as="offset" />
          </mxGeometry>
        </mxCell>
        <mxCell id="kMa7ujGkbgm4nIbHHd1Z-24" value="check" style="rhombus;whiteSpace=wrap;html=1;" vertex="1" parent="WIyWlLk6GJQsqaUBKTNV-1">
          <mxGeometry x="-560" y="580" width="80" height="80" as="geometry" />
        </mxCell>
        <mxCell id="kMa7ujGkbgm4nIbHHd1Z-34" style="edgeStyle=orthogonalEdgeStyle;rounded=0;orthogonalLoop=1;jettySize=auto;html=1;endArrow=block;endFill=0;exitX=1;exitY=0.5;exitDx=0;exitDy=0;entryX=0.5;entryY=0;entryDx=0;entryDy=0;" edge="1" parent="WIyWlLk6GJQsqaUBKTNV-1" source="kMa7ujGkbgm4nIbHHd1Z-38" target="kMa7ujGkbgm4nIbHHd1Z-59">
          <mxGeometry relative="1" as="geometry">
            <mxPoint x="-260" y="720" as="targetPoint" />
          </mxGeometry>
        </mxCell>
        <mxCell id="kMa7ujGkbgm4nIbHHd1Z-35" value="нет" style="edgeLabel;html=1;align=center;verticalAlign=middle;resizable=0;points=[];" vertex="1" connectable="0" parent="kMa7ujGkbgm4nIbHHd1Z-34">
          <mxGeometry x="0.2348" y="-1" relative="1" as="geometry">
            <mxPoint x="1" y="-15" as="offset" />
          </mxGeometry>
        </mxCell>
        <mxCell id="kMa7ujGkbgm4nIbHHd1Z-36" style="edgeStyle=orthogonalEdgeStyle;rounded=0;orthogonalLoop=1;jettySize=auto;html=1;endArrow=block;endFill=0;exitX=0;exitY=0.5;exitDx=0;exitDy=0;entryX=0.5;entryY=0;entryDx=0;entryDy=0;" edge="1" parent="WIyWlLk6GJQsqaUBKTNV-1" source="kMa7ujGkbgm4nIbHHd1Z-38" target="kMa7ujGkbgm4nIbHHd1Z-54">
          <mxGeometry relative="1" as="geometry">
            <mxPoint x="-380" y="720" as="targetPoint" />
            <Array as="points">
              <mxPoint x="-380" y="620" />
            </Array>
          </mxGeometry>
        </mxCell>
        <mxCell id="kMa7ujGkbgm4nIbHHd1Z-37" value="да" style="edgeLabel;html=1;align=center;verticalAlign=middle;resizable=0;points=[];" vertex="1" connectable="0" parent="kMa7ujGkbgm4nIbHHd1Z-36">
          <mxGeometry x="-0.4491" relative="1" as="geometry">
            <mxPoint y="43" as="offset" />
          </mxGeometry>
        </mxCell>
        <mxCell id="kMa7ujGkbgm4nIbHHd1Z-38" value="check" style="rhombus;whiteSpace=wrap;html=1;" vertex="1" parent="WIyWlLk6GJQsqaUBKTNV-1">
          <mxGeometry x="-360" y="580" width="80" height="80" as="geometry" />
        </mxCell>
        <mxCell id="kMa7ujGkbgm4nIbHHd1Z-39" style="edgeStyle=orthogonalEdgeStyle;rounded=0;orthogonalLoop=1;jettySize=auto;html=1;endArrow=block;endFill=0;exitX=1;exitY=0.5;exitDx=0;exitDy=0;entryX=0.5;entryY=0;entryDx=0;entryDy=0;" edge="1" parent="WIyWlLk6GJQsqaUBKTNV-1" source="kMa7ujGkbgm4nIbHHd1Z-43" target="kMa7ujGkbgm4nIbHHd1Z-61">
          <mxGeometry relative="1" as="geometry">
            <mxPoint x="-60" y="720" as="targetPoint" />
          </mxGeometry>
        </mxCell>
        <mxCell id="kMa7ujGkbgm4nIbHHd1Z-40" value="нет" style="edgeLabel;html=1;align=center;verticalAlign=middle;resizable=0;points=[];" vertex="1" connectable="0" parent="kMa7ujGkbgm4nIbHHd1Z-39">
          <mxGeometry x="0.2348" y="-1" relative="1" as="geometry">
            <mxPoint x="1" y="-15" as="offset" />
          </mxGeometry>
        </mxCell>
        <mxCell id="kMa7ujGkbgm4nIbHHd1Z-41" style="edgeStyle=orthogonalEdgeStyle;rounded=0;orthogonalLoop=1;jettySize=auto;html=1;endArrow=block;endFill=0;exitX=0;exitY=0.5;exitDx=0;exitDy=0;entryX=0.5;entryY=0;entryDx=0;entryDy=0;" edge="1" parent="WIyWlLk6GJQsqaUBKTNV-1" source="kMa7ujGkbgm4nIbHHd1Z-43" target="kMa7ujGkbgm4nIbHHd1Z-55">
          <mxGeometry relative="1" as="geometry">
            <mxPoint x="-180" y="720" as="targetPoint" />
            <Array as="points">
              <mxPoint x="-180" y="620" />
              <mxPoint x="-180" y="710" />
              <mxPoint x="-170" y="710" />
            </Array>
          </mxGeometry>
        </mxCell>
        <mxCell id="kMa7ujGkbgm4nIbHHd1Z-42" value="да" style="edgeLabel;html=1;align=center;verticalAlign=middle;resizable=0;points=[];" vertex="1" connectable="0" parent="kMa7ujGkbgm4nIbHHd1Z-41">
          <mxGeometry x="-0.4491" relative="1" as="geometry">
            <mxPoint y="43" as="offset" />
          </mxGeometry>
        </mxCell>
        <mxCell id="kMa7ujGkbgm4nIbHHd1Z-43" value="check" style="rhombus;whiteSpace=wrap;html=1;" vertex="1" parent="WIyWlLk6GJQsqaUBKTNV-1">
          <mxGeometry x="-160" y="580" width="80" height="80" as="geometry" />
        </mxCell>
        <mxCell id="kMa7ujGkbgm4nIbHHd1Z-45" style="edgeStyle=orthogonalEdgeStyle;rounded=0;orthogonalLoop=1;jettySize=auto;html=1;endArrow=block;endFill=0;exitX=1;exitY=0.5;exitDx=0;exitDy=0;entryX=0;entryY=0.5;entryDx=0;entryDy=0;" edge="1" parent="WIyWlLk6GJQsqaUBKTNV-1" source="kMa7ujGkbgm4nIbHHd1Z-49" target="kMa7ujGkbgm4nIbHHd1Z-62">
          <mxGeometry relative="1" as="geometry">
            <mxPoint x="140" y="720" as="targetPoint" />
          </mxGeometry>
        </mxCell>
        <mxCell id="kMa7ujGkbgm4nIbHHd1Z-46" value="нет" style="edgeLabel;html=1;align=center;verticalAlign=middle;resizable=0;points=[];" vertex="1" connectable="0" parent="kMa7ujGkbgm4nIbHHd1Z-45">
          <mxGeometry x="0.2348" y="-1" relative="1" as="geometry">
            <mxPoint x="1" y="-15" as="offset" />
          </mxGeometry>
        </mxCell>
        <mxCell id="kMa7ujGkbgm4nIbHHd1Z-47" style="edgeStyle=orthogonalEdgeStyle;rounded=0;orthogonalLoop=1;jettySize=auto;html=1;endArrow=block;endFill=0;exitX=0;exitY=0.5;exitDx=0;exitDy=0;" edge="1" parent="WIyWlLk6GJQsqaUBKTNV-1" source="kMa7ujGkbgm4nIbHHd1Z-49" target="kMa7ujGkbgm4nIbHHd1Z-56">
          <mxGeometry relative="1" as="geometry">
            <mxPoint x="20" y="720" as="targetPoint" />
            <Array as="points">
              <mxPoint x="40" y="630" />
              <mxPoint x="20" y="630" />
            </Array>
          </mxGeometry>
        </mxCell>
        <mxCell id="kMa7ujGkbgm4nIbHHd1Z-48" value="да" style="edgeLabel;html=1;align=center;verticalAlign=middle;resizable=0;points=[];" vertex="1" connectable="0" parent="kMa7ujGkbgm4nIbHHd1Z-47">
          <mxGeometry x="-0.4491" relative="1" as="geometry">
            <mxPoint y="43" as="offset" />
          </mxGeometry>
        </mxCell>
        <mxCell id="kMa7ujGkbgm4nIbHHd1Z-49" value="check" style="rhombus;whiteSpace=wrap;html=1;" vertex="1" parent="WIyWlLk6GJQsqaUBKTNV-1">
          <mxGeometry x="40" y="580" width="80" height="80" as="geometry" />
        </mxCell>
        <mxCell id="kMa7ujGkbgm4nIbHHd1Z-52" value="ввод данных канала" style="rounded=1;whiteSpace=wrap;html=1;" vertex="1" parent="WIyWlLk6GJQsqaUBKTNV-1">
          <mxGeometry x="-730" y="720" width="120" height="60" as="geometry" />
        </mxCell>
        <mxCell id="kMa7ujGkbgm4nIbHHd1Z-53" value="отклонение добавления" style="rounded=1;whiteSpace=wrap;html=1;" vertex="1" parent="WIyWlLk6GJQsqaUBKTNV-1">
          <mxGeometry x="-570" y="720" width="120" height="60" as="geometry" />
        </mxCell>
        <mxCell id="kMa7ujGkbgm4nIbHHd1Z-63" style="edgeStyle=orthogonalEdgeStyle;rounded=0;orthogonalLoop=1;jettySize=auto;html=1;endArrow=block;endFill=0;entryX=0.5;entryY=0;entryDx=0;entryDy=0;" edge="1" parent="WIyWlLk6GJQsqaUBKTNV-1" source="kMa7ujGkbgm4nIbHHd1Z-54" target="kMa7ujGkbgm4nIbHHd1Z-64">
          <mxGeometry relative="1" as="geometry">
            <mxPoint x="-380" y="940" as="targetPoint" />
          </mxGeometry>
        </mxCell>
        <mxCell id="kMa7ujGkbgm4nIbHHd1Z-54" value="ввод данных канала" style="rounded=1;whiteSpace=wrap;html=1;" vertex="1" parent="WIyWlLk6GJQsqaUBKTNV-1">
          <mxGeometry x="-440" y="810" width="120" height="60" as="geometry" />
        </mxCell>
        <mxCell id="kMa7ujGkbgm4nIbHHd1Z-55" value="ввод данных канала" style="rounded=1;whiteSpace=wrap;html=1;" vertex="1" parent="WIyWlLk6GJQsqaUBKTNV-1">
          <mxGeometry x="-230" y="800" width="120" height="60" as="geometry" />
        </mxCell>
        <mxCell id="kMa7ujGkbgm4nIbHHd1Z-56" value="ввод данных канала" style="rounded=1;whiteSpace=wrap;html=1;" vertex="1" parent="WIyWlLk6GJQsqaUBKTNV-1">
          <mxGeometry x="40" y="760" width="120" height="60" as="geometry" />
        </mxCell>
        <mxCell id="kMa7ujGkbgm4nIbHHd1Z-59" value="отклонение добавления" style="rounded=1;whiteSpace=wrap;html=1;" vertex="1" parent="WIyWlLk6GJQsqaUBKTNV-1">
          <mxGeometry x="-320" y="710" width="120" height="60" as="geometry" />
        </mxCell>
        <mxCell id="kMa7ujGkbgm4nIbHHd1Z-61" value="отклонение добавления" style="rounded=1;whiteSpace=wrap;html=1;" vertex="1" parent="WIyWlLk6GJQsqaUBKTNV-1">
          <mxGeometry x="-120" y="720" width="120" height="60" as="geometry" />
        </mxCell>
        <mxCell id="kMa7ujGkbgm4nIbHHd1Z-62" value="отклонение добавления" style="rounded=1;whiteSpace=wrap;html=1;" vertex="1" parent="WIyWlLk6GJQsqaUBKTNV-1">
          <mxGeometry x="170" y="690" width="120" height="60" as="geometry" />
        </mxCell>
        <mxCell id="kMa7ujGkbgm4nIbHHd1Z-64" value="отправка данных в группу" style="rounded=1;whiteSpace=wrap;html=1;" vertex="1" parent="WIyWlLk6GJQsqaUBKTNV-1">
          <mxGeometry x="-440" y="900" width="120" height="60" as="geometry" />
        </mxCell>
      </root>
    </mxGraphModel>
  </diagram>
</mxfile>
